<svg version="1.2" baseProfile="tiny-ps" xmlns="http://www.w3.org/2000/svg" viewBox="0 0 109 74" width="109" height="74">
	<title>icon_area</title>
	<style>
		tspan { white-space:pre }
		.shp0 { fill: #f5c506 } 
	</style>
	<g id="icon_area">
		<path id="Shape 2" class="shp0" d="M81.75 74L23.84 74C10.68 74 0 63.46 0 50.45C0 39.77 7.25 30.86 17.12 27.98C17.1 27.62 17.03 27.27 17.03 26.91C17.03 17.62 24.66 10.09 34.06 10.09C35.95 10.09 37.73 10.46 39.42 11.02C44.38 4.37 52.3 0 61.31 0C74.27 0 85.06 8.95 87.83 20.91C99.94 23.64 109 34.3 109 47.09C109 61.95 96.8 74 81.75 74ZM61.31 47.09L61.31 26.91L47.69 26.91L47.69 47.09L37.26 47.09L54.5 64.12L71.74 47.09L61.31 47.09Z" />
	</g>
</svg>