<svg width="25" height="19" xmlns="http://www.w3.org/2000/svg" xmlns:xlink="http://www.w3.org/1999/xlink" xmlns:svgjs="http://svgjs.com/svgjs" viewBox="0 0.125 25 18.75" fill="#b99403"><svg xmlns="http://www.w3.org/2000/svg" width="25" height="19" viewBox="2 2 24 18"><path paint-order="stroke fill markers" fill-rule="evenodd" d="M25.736 19.3l-8.276-8.277 6.125-6.125 2.17-2.17c.142.229.245.483.245.772v15c0 .3-.111.565-.264.8zM23.055 4.368L20.26 7.162l-5.346 5.346-.938.938-9.032-9.031-1.5-1.5-.689-.69C2.98 2.096 3.223 2 3.5 2h21c.264 0 .5.087.716.207l-.755.755-1.406 1.406zm-20.14-.923L10.47 11l-8.244 8.244A1.459 1.459 0 0 1 2 18.5v-15c0-.277.095-.522.226-.744l.689.69zM11 11.53l.317.317.113.113 1.03 1.031 1.5 1.5.063-.062.016.015 1.406-1.406 1.485-1.484 8.258 8.258c-.209.11-.436.188-.688.188h-21a1.46 1.46 0 0 1-.744-.226L11 11.53z"/></svg></svg>