<svg width="20" height="20" xmlns="http://www.w3.org/2000/svg" xmlns:xlink="http://www.w3.org/1999/xlink" xmlns:svgjs="http://svgjs.com/svgjs" viewBox="0 0.022 20 19.956" fill="#b99403"><svg xmlns="http://www.w3.org/2000/svg" width="20" height="20" viewBox="1.981 2 19.019 18.977"><path paint-order="stroke fill markers" fill-rule="evenodd" d="M15.958 3.578a2.438 2.438 0 0 0 0 3.454 2.45 2.45 0 0 0 3.46 0l1.4-1.398c.107.401.182.815.182 1.25a4.888 4.888 0 0 1-4.893 4.883c-.441 0-.86-.077-1.267-.186-.014.014-.018.034-.032.047l-8.65 8.633a2.45 2.45 0 0 1-3.46 0 2.438 2.438 0 0 1 0-3.453l8.65-8.633c.015-.014.035-.018.05-.033a4.826 4.826 0 0 1-.185-1.259A4.888 4.888 0 0 1 16.107 2c.435 0 .85.075 1.251.181l-1.4 1.397zM4.485 17.871a.611.611 0 1 0-.001 1.223.611.611 0 0 0 0-1.223z"/></svg></svg>